<svg width="22" height="22" viewBox="0 0 22 22" fill="none" xmlns="http://www.w3.org/2000/svg">
<path d="M11.0013 7.7513C10.1393 7.7513 9.3127 8.09371 8.70321 8.70321C8.09371 9.3127 7.7513 10.1393 7.7513 11.0013C7.7513 11.8633 8.09371 12.6899 8.70321 13.2994C9.3127 13.9089 10.1393 14.2513 11.0013 14.2513C11.8633 14.2513 12.6899 13.9089 13.2994 13.2994C13.9089 12.6899 14.2513 11.8633 14.2513 11.0013C14.2513 10.1393 13.9089 9.3127 13.2994 8.70321C12.6899 8.09371 11.8633 7.7513 11.0013 7.7513ZM11.0013 5.58464C12.4379 5.58464 13.8156 6.15532 14.8315 7.17114C15.8473 8.18696 16.418 9.56471 16.418 11.0013C16.418 12.4379 15.8473 13.8156 14.8315 14.8315C13.8156 15.8473 12.4379 16.418 11.0013 16.418C9.56471 16.418 8.18696 15.8473 7.17114 14.8315C6.15532 13.8156 5.58464 12.4379 5.58464 11.0013C5.58464 9.56471 6.15532 8.18696 7.17114 7.17114C8.18696 6.15532 9.56471 5.58464 11.0013 5.58464ZM18.043 5.3138C18.043 5.67295 17.9003 6.01739 17.6463 6.27134C17.3924 6.5253 17.048 6.66797 16.6888 6.66797C16.3297 6.66797 15.9852 6.5253 15.7313 6.27134C15.4773 6.01739 15.3346 5.67295 15.3346 5.3138C15.3346 4.95465 15.4773 4.61022 15.7313 4.35626C15.9852 4.10231 16.3297 3.95964 16.6888 3.95964C17.048 3.95964 17.3924 4.10231 17.6463 4.35626C17.9003 4.61022 18.043 4.95465 18.043 5.3138ZM11.0013 2.33464C8.32114 2.33464 7.88347 2.34222 6.63655 2.39747C5.78722 2.43755 5.21739 2.5513 4.68872 2.75714C4.2463 2.91957 3.84633 3.17992 3.51872 3.51872C3.17964 3.84632 2.91893 4.24627 2.75605 4.68872C2.55022 5.21955 2.43647 5.7883 2.39747 6.63655C2.34114 7.83255 2.33464 8.25072 2.33464 11.0013C2.33464 13.6815 2.34222 14.1191 2.39747 15.3661C2.43755 16.2143 2.5513 16.7852 2.75605 17.3128C2.94022 17.7841 3.15689 18.1231 3.51655 18.4828C3.88164 18.8468 4.22072 19.0646 4.68655 19.2444C5.22172 19.4513 5.79155 19.5661 6.63655 19.6051C7.83255 19.6615 8.25072 19.668 11.0013 19.668C13.6815 19.668 14.1191 19.6604 15.3661 19.6051C16.2132 19.5651 16.7841 19.4513 17.3128 19.2466C17.7546 19.0833 18.1543 18.8235 18.4828 18.4861C18.8479 18.121 19.0656 17.7819 19.2455 17.3161C19.4513 16.782 19.5661 16.2111 19.6051 15.3661C19.6615 14.1701 19.668 13.7519 19.668 11.0013C19.668 8.32114 19.6604 7.88347 19.6051 6.63655C19.5651 5.78939 19.4513 5.21739 19.2455 4.68872C19.0822 4.24672 18.822 3.84693 18.4839 3.51872C18.1564 3.17947 17.7564 2.91873 17.3139 2.75605C16.7831 2.55022 16.2132 2.43647 15.3661 2.39747C14.1701 2.34114 13.7519 2.33464 11.0013 2.33464ZM11.0013 0.167969C13.9447 0.167969 14.312 0.178802 15.4668 0.232969C16.6206 0.287135 17.406 0.468052 18.0971 0.736719C18.8121 1.01189 19.4145 1.38455 20.0168 1.9858C20.5677 2.52736 20.9939 3.18244 21.2659 3.90547C21.5335 4.59555 21.7155 5.38205 21.7696 6.5358C21.8206 7.69064 21.8346 8.05789 21.8346 11.0013C21.8346 13.9447 21.8238 14.312 21.7696 15.4668C21.7155 16.6206 21.5335 17.406 21.2659 18.0971C20.9947 18.8206 20.5684 19.4758 20.0168 20.0168C19.4751 20.5675 18.8201 20.9937 18.0971 21.2659C17.4071 21.5335 16.6206 21.7155 15.4668 21.7696C14.312 21.8206 13.9447 21.8346 11.0013 21.8346C8.05789 21.8346 7.69064 21.8238 6.5358 21.7696C5.38205 21.7155 4.59664 21.5335 3.90547 21.2659C3.18216 20.9945 2.52696 20.5682 1.9858 20.0168C1.43483 19.4753 1.00856 18.8202 0.736719 18.0971C0.468052 17.4071 0.287135 16.6206 0.232969 15.4668C0.182052 14.312 0.167969 13.9447 0.167969 11.0013C0.167969 8.05789 0.178802 7.69064 0.232969 6.5358C0.287135 5.38097 0.468052 4.59664 0.736719 3.90547C1.00781 3.182 1.43417 2.52673 1.9858 1.9858C2.52711 1.43464 3.18227 1.00834 3.90547 0.736719C4.59664 0.468052 5.38097 0.287135 6.5358 0.232969C7.69064 0.182052 8.05789 0.167969 11.0013 0.167969Z" fill="#FCFCFD"/>
</svg>
