<svg width="81" height="27" viewBox="0 0 81 27" fill="none" xmlns="http://www.w3.org/2000/svg">
<rect width="23.521" height="26.0168" fill="#FCFCFD"/>
<path d="M5.37492 17.0083V8.2566H8.72519C9.35763 8.2566 9.88325 8.35631 10.302 8.55573C10.7237 8.7523 11.0385 9.02152 11.2464 9.36338C11.4572 9.70524 11.5627 10.0927 11.5627 10.5257C11.5627 10.8818 11.4943 11.1867 11.3575 11.4402C11.2208 11.6909 11.037 11.8946 10.8063 12.0513C10.5755 12.208 10.3177 12.3205 10.0328 12.3889V12.4743C10.3433 12.4914 10.641 12.5869 10.9259 12.7606C11.2137 12.9316 11.4487 13.1737 11.631 13.4871C11.8134 13.8005 11.9045 14.1794 11.9045 14.6238C11.9045 15.0768 11.7948 15.4842 11.5755 15.846C11.3561 16.2049 11.0256 16.4884 10.5841 16.6964C10.1425 16.9043 9.58697 17.0083 8.91748 17.0083H5.37492ZM6.96032 15.6836H8.66536C9.24083 15.6836 9.65534 15.5739 9.90889 15.3545C10.1653 15.1323 10.2935 14.8474 10.2935 14.4999C10.2935 14.2406 10.2294 14.007 10.1012 13.7991C9.97299 13.5882 9.79066 13.423 9.5542 13.3034C9.31775 13.1809 9.03571 13.1196 8.70809 13.1196H6.96032V15.6836ZM6.96032 11.9786H8.52861C8.80211 11.9786 9.04853 11.9288 9.26789 11.8291C9.48726 11.7265 9.65961 11.5826 9.78496 11.3975C9.91316 11.2094 9.97726 10.9872 9.97726 10.7308C9.97726 10.3918 9.85761 10.1126 9.6183 9.89327C9.38185 9.6739 9.03001 9.56422 8.5628 9.56422H6.96032V11.9786ZM16.1212 17.1365C15.4631 17.1365 14.8948 16.9998 14.4161 16.7263C13.9404 16.4499 13.5743 16.0596 13.3179 15.5554C13.0615 15.0483 12.9333 14.4514 12.9333 13.7649C12.9333 13.0897 13.0615 12.4971 13.3179 11.9872C13.5772 11.4744 13.939 11.0755 14.4033 10.7907C14.8677 10.5029 15.4132 10.3591 16.04 10.3591C16.4445 10.3591 16.8263 10.4246 17.1852 10.5556C17.547 10.6838 17.8661 10.8832 18.1425 11.1539C18.4216 11.4245 18.641 11.7692 18.8005 12.188C18.9601 12.604 19.0398 13.0997 19.0398 13.6751V14.1495H13.6598V13.1068H17.557C17.5542 12.8105 17.4901 12.547 17.3647 12.3162C17.2394 12.0826 17.0642 11.8989 16.8391 11.765C16.6169 11.6311 16.3576 11.5641 16.0614 11.5641C15.7451 11.5641 15.4674 11.641 15.2281 11.7949C14.9888 11.9459 14.8022 12.1453 14.6683 12.3931C14.5372 12.6381 14.4703 12.9074 14.4674 13.2008V14.111C14.4674 14.4928 14.5372 14.8204 14.6768 15.0939C14.8164 15.3645 15.0116 15.5725 15.2623 15.7178C15.513 15.8602 15.8064 15.9314 16.1426 15.9314C16.3676 15.9314 16.5713 15.9001 16.7536 15.8374C16.936 15.7719 17.0941 15.6765 17.228 15.5511C17.3619 15.4258 17.463 15.2705 17.5314 15.0853L18.9757 15.2477C18.8846 15.6295 18.7108 15.9628 18.4544 16.2477C18.2009 16.5297 17.8761 16.7491 17.4801 16.9057C17.0841 17.0596 16.6311 17.1365 16.1212 17.1365Z" fill="#090A2A"/>
<rect width="56.521" height="26.0168" transform="translate(23.5215)" fill="#090A2A"/>
<path d="M27.2899 17.0083V8.2566H33.0845V9.78216H29.1403V11.8675H32.6999V13.3931H29.1403V17.0083H27.2899ZM36.7788 17.1365C36.115 17.1365 35.541 16.9955 35.0567 16.7134C34.5752 16.4286 34.2034 16.0326 33.9413 15.5255C33.6792 15.0155 33.5482 14.4244 33.5482 13.7521C33.5482 13.074 33.6792 12.4815 33.9413 11.9744C34.2034 11.4644 34.5752 11.0684 35.0567 10.7864C35.541 10.5015 36.115 10.3591 36.7788 10.3591C37.4426 10.3591 38.0152 10.5015 38.4967 10.7864C38.981 11.0684 39.3542 11.4644 39.6163 11.9744C39.8784 12.4815 40.0094 13.074 40.0094 13.7521C40.0094 14.4244 39.8784 15.0155 39.6163 15.5255C39.3542 16.0326 38.981 16.4286 38.4967 16.7134C38.0152 16.9955 37.4426 17.1365 36.7788 17.1365ZM36.7873 15.7263C37.0893 15.7263 37.3414 15.6408 37.5437 15.4699C37.746 15.2961 37.8984 15.0597 38.001 14.7605C38.1064 14.4614 38.1591 14.121 38.1591 13.7392C38.1591 13.3575 38.1064 13.017 38.001 12.7179C37.8984 12.4188 37.746 12.1823 37.5437 12.0085C37.3414 11.8348 37.0893 11.7479 36.7873 11.7479C36.4825 11.7479 36.2261 11.8348 36.0181 12.0085C35.813 12.1823 35.6578 12.4188 35.5524 12.7179C35.4498 13.017 35.3985 13.3575 35.3985 13.7392C35.3985 14.121 35.4498 14.4614 35.5524 14.7605C35.6578 15.0597 35.813 15.2961 36.0181 15.4699C36.2261 15.6408 36.4825 15.7263 36.7873 15.7263ZM45.4023 14.2136V10.4445H47.2227V17.0083H45.4749V15.8161H45.4066C45.2584 16.2006 45.012 16.5097 44.6673 16.7434C44.3254 16.977 43.9081 17.0938 43.4152 17.0938C42.9765 17.0938 42.5905 16.9941 42.2572 16.7946C41.9238 16.5952 41.6632 16.3118 41.4751 15.9443C41.29 15.5767 41.196 15.1366 41.1931 14.6238V10.4445H43.0135V14.299C43.0164 14.6865 43.1204 14.9927 43.3255 15.2178C43.5306 15.4429 43.8055 15.5554 44.1502 15.5554C44.3696 15.5554 44.5747 15.5055 44.7656 15.4058C44.9565 15.3033 45.1103 15.1523 45.2271 14.9528C45.3467 14.7534 45.4051 14.507 45.4023 14.2136ZM50.4993 13.2136V17.0083H48.6788V10.4445H50.4138V11.6026H50.4907C50.636 11.2208 50.8796 10.9189 51.2215 10.6966C51.5633 10.4716 51.9778 10.3591 52.465 10.3591C52.9208 10.3591 53.3182 10.4588 53.6572 10.6582C53.9962 10.8576 54.2598 11.1425 54.4478 11.5128C54.6358 11.8803 54.7298 12.3191 54.7298 12.829V17.0083H52.9094V13.1538C52.9123 12.7521 52.8097 12.4387 52.6017 12.2137C52.3938 11.9858 52.1075 11.8718 51.7428 11.8718C51.4978 11.8718 51.2813 11.9245 51.0933 12.0299C50.9081 12.1353 50.7628 12.2892 50.6574 12.4914C50.5548 12.6909 50.5021 12.9316 50.4993 13.2136ZM58.5833 17.1151C58.0847 17.1151 57.6332 16.9869 57.2286 16.7305C56.8269 16.4713 56.5079 16.091 56.2714 15.5896C56.0378 15.0853 55.921 14.4671 55.921 13.735C55.921 12.9829 56.0421 12.3575 56.2842 11.859C56.5264 11.3576 56.8483 10.983 57.25 10.7351C57.6545 10.4844 58.0975 10.3591 58.579 10.3591C58.9465 10.3591 59.2528 10.4217 59.4978 10.5471C59.7456 10.6696 59.945 10.8234 60.096 11.0086C60.2499 11.1909 60.3667 11.3704 60.4464 11.547H60.502V8.2566H62.3181V17.0083H60.5233V15.9571H60.4464C60.361 16.1394 60.2399 16.3203 60.0832 16.4998C59.9294 16.6764 59.7285 16.8231 59.4807 16.9399C59.2357 17.0567 58.9365 17.1151 58.5833 17.1151ZM59.1602 15.6665C59.4536 15.6665 59.7014 15.5867 59.9037 15.4272C60.1088 15.2648 60.2655 15.0383 60.3738 14.7477C60.4849 14.4571 60.5404 14.1167 60.5404 13.7264C60.5404 13.3361 60.4863 12.9971 60.3781 12.7094C60.2698 12.4216 60.1131 12.1994 59.908 12.0427C59.7029 11.886 59.4536 11.8077 59.1602 11.8077C58.861 11.8077 58.6089 11.8889 58.4038 12.0513C58.1987 12.2137 58.0434 12.4387 57.938 12.7265C57.8326 13.0142 57.7799 13.3475 57.7799 13.7264C57.7799 14.1082 57.8326 14.4457 57.938 14.7392C58.0463 15.0298 58.2015 15.2577 58.4038 15.4229C58.6089 15.5853 58.861 15.6665 59.1602 15.6665ZM66.8062 17.1365C66.131 17.1365 65.5498 16.9998 65.0627 16.7263C64.5783 16.4499 64.2051 16.0596 63.943 15.5554C63.681 15.0483 63.5499 14.4486 63.5499 13.7563C63.5499 13.0811 63.681 12.4886 63.943 11.9786C64.2051 11.4687 64.5741 11.0713 65.0498 10.7864C65.5284 10.5015 66.0897 10.3591 66.7335 10.3591C67.1665 10.3591 67.5697 10.4289 67.9429 10.5684C68.3189 10.7052 68.6465 10.9117 68.9257 11.1881C69.2077 11.4644 69.4271 11.812 69.5838 12.2308C69.7405 12.6467 69.8188 13.1338 69.8188 13.6922V14.1922H64.2764V13.0641H68.1052C68.1052 12.802 68.0483 12.5698 67.9343 12.3675C67.8204 12.1652 67.6622 12.0071 67.46 11.8932C67.2605 11.7764 67.0284 11.718 66.7634 11.718C66.4871 11.718 66.2421 11.7821 66.0284 11.9103C65.8176 12.0356 65.6524 12.2051 65.5327 12.4188C65.4131 12.6296 65.3518 12.8646 65.349 13.1239V14.1965C65.349 14.5212 65.4088 14.8019 65.5284 15.0383C65.6509 15.2748 65.8233 15.4571 66.0455 15.5853C66.2677 15.7135 66.5312 15.7776 66.8361 15.7776C67.0383 15.7776 67.2235 15.7491 67.3916 15.6921C67.5597 15.6351 67.7035 15.5497 67.8232 15.4357C67.9429 15.3218 68.034 15.1822 68.0967 15.0169L69.7804 15.1281C69.6949 15.5326 69.5197 15.8858 69.2548 16.1878C68.9927 16.487 68.6536 16.7206 68.2377 16.8886C67.8246 17.0539 67.3474 17.1365 66.8062 17.1365ZM71.0068 17.0083V10.4445H72.7717V11.5898H72.84C72.9597 11.1824 73.1605 10.8747 73.4426 10.6667C73.7246 10.4559 74.0494 10.3505 74.4169 10.3505C74.5081 10.3505 74.6063 10.3562 74.7117 10.3676C74.8172 10.379 74.9097 10.3947 74.9895 10.4146V12.0299C74.904 12.0043 74.7858 11.9815 74.6348 11.9615C74.4838 11.9416 74.3457 11.9316 74.2203 11.9316C73.9525 11.9316 73.7132 11.99 73.5024 12.1068C73.2944 12.2208 73.1292 12.3803 73.0067 12.5854C72.8871 12.7906 72.8272 13.027 72.8272 13.2948V17.0083H71.0068Z" fill="#FCFCFD"/>
</svg>
