<svg width="22" height="21" viewBox="0 0 22 21" fill="none" xmlns="http://www.w3.org/2000/svg">
<path d="M19.25 4.62494H15.7438C15.4908 3.55693 14.8848 2.60553 14.0239 1.92472C13.163 1.24391 12.0976 0.873535 11 0.873535C9.90244 0.873535 8.83699 1.24391 7.97609 1.92472C7.11519 2.60553 6.50922 3.55693 6.25625 4.62494H2.75C2.25348 4.62741 1.778 4.82574 1.4269 5.17684C1.0758 5.52794 0.877464 6.00342 0.875 6.49994V18.4999C0.877464 18.9965 1.0758 19.4719 1.4269 19.823C1.778 20.1741 2.25348 20.3725 2.75 20.3749H19.25C19.7465 20.3725 20.222 20.1741 20.5731 19.823C20.9242 19.4719 21.1225 18.9965 21.125 18.4999V6.49994C21.1225 6.00342 20.9242 5.52794 20.5731 5.17684C20.222 4.82574 19.7465 4.62741 19.25 4.62494ZM11 3.12494C11.4968 3.12491 11.9834 3.26584 12.4032 3.53137C12.8231 3.79689 13.159 4.1761 13.3719 4.62494H8.62812C8.84103 4.1761 9.17692 3.79689 9.59678 3.53137C10.0166 3.26584 10.5032 3.12491 11 3.12494ZM18.875 18.1249H3.125V6.87494H18.875V18.1249Z" fill="#8E8E8E"/>
</svg>
