<svg width="22" height="18" viewBox="0 0 22 18" fill="none" xmlns="http://www.w3.org/2000/svg">
<path d="M6.98312 17.8031C8.64667 17.8136 10.2957 17.4937 11.8347 16.862C13.3736 16.2303 14.7718 15.2993 15.9481 14.1231C17.1245 12.9469 18.0555 11.5489 18.6873 10.0101C19.3191 8.47139 19.639 6.82251 19.6286 5.15916V4.57817C20.4909 3.94645 21.2373 3.17016 21.8346 2.28374C21.0226 2.63883 20.1635 2.87433 19.2839 2.9829C20.2164 2.42729 20.9162 1.55274 21.2536 0.521062C20.3845 1.04242 19.4314 1.40893 18.4369 1.60427C17.7671 0.890698 16.8808 0.41772 15.9152 0.258519C14.9495 0.0993171 13.9583 0.262767 13.0948 0.723577C12.2314 1.18439 11.5439 1.91687 11.1388 2.80769C10.7336 3.69851 10.6334 4.698 10.8536 5.65152C9.08678 5.56481 7.35806 5.10699 5.77999 4.30786C4.20191 3.50873 2.80986 2.38623 1.69448 1.01343C1.13206 1.98947 0.961586 3.14274 1.21758 4.23973C1.47357 5.33673 2.13691 6.29546 3.07327 6.92183C2.38251 6.89519 1.70773 6.70628 1.10357 6.37038V6.41962C1.09744 7.43964 1.4411 8.43095 2.0773 9.22834C2.71349 10.0257 3.60378 10.581 4.59979 10.8017C3.95731 10.9745 3.28432 11.0014 2.63009 10.8805C2.91844 11.7504 3.46887 12.5098 4.20589 13.0545C4.94292 13.5993 5.83044 13.9028 6.74676 13.9233C5.18007 15.1843 3.23291 15.8784 1.22176 15.8928C0.869135 15.8825 0.517341 15.853 0.167969 15.8041C2.20361 17.1009 4.56946 17.7846 6.98312 17.7736" fill="#FCFCFD"/>
</svg>
